# xmcd CD database file
#
# Track frame offsets:
#	150
#	20754
#	43111
#	70781
#	105403
#	132982
#	164216
#	187220
#	216601
#	235779
#	264053
#
# Disc length: 3958 seconds
#
# Revision: 3
# Processed by: cddbd v1.5.2PL0 Copyright (c) Steve Scherf et al.
# Submitted via: CDex 1.51
#
DISCID=a50f740b
DTITLE=Lin Fu Chan - The Colour of Feng Shui  {composed by Tacoa and performed by Lin Fu Chan}  [CD 2-3]
DYEAR=2011
DGENRE=Other
TTITLE0=Fire
TTITLE1=Steam
TTITLE2=The Sun
TTITLE3=A new Day
TTITLE4=Summer
TTITLE5=The Mountains
TTITLE6=Soul
TTITLE7=Masculinity
TTITLE8=The Gods
TTITLE9=Brightness
TTITLE10=Liveliness
EXTD=YEAR: 2011
EXTT0=
EXTT1=
EXTT2=
EXTT3=
EXTT4=
EXTT5=
EXTT6=
EXTT7=
EXTT8=
EXTT9=
EXTT10=
PLAYORDER=
